<svg xmlns="http://www.w3.org/2000/svg" viewBox="0 0 24 24">
  <!-- HubSpot sprocket brand logo - orange #FF7A59 -->
  <path fill="#FF7A59" d="M18.164 7.931V5.085a2.198 2.198 0 0 0 1.258-1.983V3.05a2.201 2.201 0 0 0-2.199-2.199h-.05a2.201 2.201 0 0 0-2.199 2.199v.052a2.2 2.2 0 0 0 1.257 1.983v2.846a6.232 6.232 0 0 0-2.97 1.307L5.362 4.017a2.44 2.44 0 0 0 .073-.555A2.463 2.463 0 1 0 2.97 5.921l9.663 5.203a6.22 6.22 0 0 0-.798 3.045 6.232 6.232 0 0 0 1.524 4.097l-1.662 1.662a1.98 1.98 0 0 0-.578-.09 2.01 2.01 0 1 0 2.01 2.01 1.994 1.994 0 0 0-.09-.577l1.641-1.641a6.244 6.244 0 1 0 3.484-11.699zm-.99 9.52a3.065 3.065 0 1 1 0-6.13 3.065 3.065 0 0 1 0 6.13z"/>
</svg>